<?xml version="1.0" standalone="no"?>
<!DOCTYPE svg PUBLIC "-//W3C//DTD SVG 20010904//EN"
 "http://www.w3.org/TR/2001/REC-SVG-20010904/DTD/svg10.dtd">
<svg version="1.0" xmlns="http://www.w3.org/2000/svg"
 width="96.000000pt" height="96.000000pt" viewBox="0 0 96.000000 96.000000"
 preserveAspectRatio="xMidYMid meet">
<metadata>
Created by potrace 1.16, written by Peter Selinger 2001-2019
</metadata>
<g transform="translate(0.000000,96.000000) scale(0.100000,-0.100000)"
fill="#000000" stroke="none">
<path d="M34 816 c-18 -14 -19 -29 -19 -336 0 -307 1 -322 19 -336 29 -21 863
-21 892 0 18 14 19 29 19 336 0 307 -1 322 -19 336 -29 21 -863 21 -892 0z
m426 -336 l0 -300 -197 2 -198 3 -3 285 c-1 157 0 290 3 297 3 10 52 13 200
13 l195 0 0 -300z m435 0 l0 -295 -197 -3 -198 -2 0 300 0 300 198 -2 197 -3
0 -295z"/>
</g>
</svg>
